<?xml version="1.0" encoding="utf-8"?>
<!-- Generator: Adobe Illustrator 14.0.0, SVG Export Plug-In  -->
<!DOCTYPE svg PUBLIC "-//W3C//DTD SVG 1.1//EN" "http://www.w3.org/Graphics/SVG/1.1/DTD/svg11.dtd" [
	<!ENTITY ns_flows "http://ns.adobe.com/Flows/1.0/">
]>
<svg version="1.1"
	 xmlns="http://www.w3.org/2000/svg" xmlns:xlink="http://www.w3.org/1999/xlink" xmlns:a="http://ns.adobe.com/AdobeSVGViewerExtensions/3.0/"
	 x="0px" y="0px" width="419px" height="85px" viewBox="-0.708 -0.208 419 85" enable-background="new -0.708 -0.208 419 85"
	 xml:space="preserve">
<defs>
</defs>
<path fill="#004D1C" d="M18.634,37.841c0,1.516-0.25,2.883-0.75,4.102c-0.5,1.219-1.215,2.259-2.145,3.117
	c-0.929,0.86-2.071,1.523-3.422,1.993c-1.352,0.469-2.965,0.703-4.84,0.703H4.031v10.922c0,0.125-0.034,0.234-0.105,0.329
	c-0.07,0.094-0.18,0.168-0.328,0.223c-0.149,0.054-0.351,0.102-0.609,0.141c-0.258,0.039-0.583,0.058-0.972,0.058
	c-0.391,0-0.715-0.02-0.974-0.058c-0.258-0.039-0.465-0.086-0.621-0.141c-0.157-0.055-0.266-0.129-0.328-0.223
	C0.031,58.912,0,58.803,0,58.678V30.692c0-0.625,0.164-1.07,0.492-1.336c0.328-0.266,0.695-0.398,1.102-0.398h6.493
	c0.656,0,1.285,0.027,1.886,0.083c0.601,0.054,1.313,0.172,2.133,0.351c0.82,0.18,1.656,0.517,2.508,1.008
	c0.852,0.492,1.574,1.098,2.168,1.816c0.593,0.719,1.05,1.551,1.371,2.497C18.474,35.657,18.634,36.7,18.634,37.841z M14.392,38.168
	c0-1.233-0.231-2.265-0.691-3.094c-0.462-0.828-1.031-1.445-1.711-1.852c-0.68-0.406-1.383-0.664-2.109-0.772
	c-0.727-0.11-1.435-0.165-2.122-0.165H4.031v12.166h3.634c1.219,0,2.23-0.156,3.035-0.469c0.805-0.313,1.48-0.747,2.027-1.301
	c0.547-0.554,0.961-1.219,1.242-1.993C14.251,39.916,14.392,39.075,14.392,38.168z"/>
<path fill="#004D1C" d="M36.682,38.989c0,0.343-0.008,0.633-0.023,0.867c-0.016,0.234-0.047,0.418-0.094,0.552
	c-0.047,0.133-0.105,0.235-0.176,0.304c-0.07,0.071-0.168,0.105-0.293,0.105c-0.125,0-0.278-0.035-0.457-0.105
	c-0.18-0.069-0.383-0.14-0.61-0.21c-0.226-0.071-0.48-0.137-0.761-0.199c-0.281-0.063-0.586-0.094-0.914-0.094
	c-0.391,0-0.773,0.078-1.148,0.234c-0.375,0.156-0.77,0.413-1.184,0.773s-0.848,0.836-1.301,1.43c-0.454,0.594-0.953,1.321-1.5,2.18
	v13.877c0,0.125-0.032,0.23-0.093,0.316c-0.063,0.086-0.165,0.161-0.305,0.222c-0.141,0.063-0.336,0.11-0.586,0.141
	c-0.25,0.031-0.571,0.047-0.961,0.047c-0.375,0-0.688-0.016-0.938-0.047s-0.449-0.079-0.598-0.141
	c-0.148-0.062-0.25-0.136-0.304-0.222c-0.056-0.086-0.082-0.191-0.082-0.316V37.606c0-0.125,0.022-0.23,0.07-0.316
	c0.046-0.085,0.141-0.164,0.281-0.234c0.14-0.07,0.32-0.118,0.539-0.141c0.219-0.023,0.508-0.035,0.868-0.035
	c0.343,0,0.628,0.012,0.856,0.035c0.226,0.023,0.402,0.07,0.526,0.141c0.125,0.071,0.215,0.149,0.27,0.234
	c0.055,0.086,0.083,0.192,0.083,0.316v3.071c0.577-0.844,1.121-1.531,1.629-2.063c0.507-0.531,0.987-0.95,1.441-1.253
	c0.453-0.305,0.902-0.516,1.348-0.633c0.445-0.118,0.895-0.177,1.349-0.177c0.202,0,0.434,0.012,0.69,0.035
	c0.258,0.024,0.527,0.067,0.809,0.129c0.281,0.062,0.535,0.132,0.762,0.211c0.226,0.078,0.387,0.156,0.48,0.234
	c0.094,0.079,0.156,0.152,0.188,0.223c0.031,0.07,0.06,0.16,0.082,0.27c0.023,0.11,0.039,0.27,0.047,0.48
	C36.678,38.344,36.682,38.63,36.682,38.989z"/>
<path fill="#004D1C" d="M58.458,47.24c0,0.61-0.153,1.043-0.459,1.301c-0.306,0.258-0.655,0.387-1.048,0.387H43.058
	c0,1.172,0.118,2.226,0.353,3.164c0.236,0.938,0.628,1.743,1.178,2.414c0.549,0.673,1.264,1.188,2.143,1.548
	c0.879,0.359,1.955,0.538,3.227,0.538c1.005,0,1.9-0.082,2.685-0.245c0.785-0.164,1.464-0.349,2.038-0.552
	c0.573-0.202,1.044-0.387,1.413-0.551c0.369-0.164,0.647-0.246,0.836-0.246c0.11,0,0.208,0.028,0.294,0.083
	c0.086,0.055,0.153,0.137,0.2,0.247c0.047,0.109,0.083,0.262,0.106,0.456c0.023,0.196,0.036,0.434,0.036,0.715
	c0,0.204-0.008,0.379-0.024,0.527c-0.016,0.148-0.035,0.281-0.058,0.398c-0.024,0.118-0.063,0.224-0.118,0.317
	c-0.055,0.094-0.125,0.183-0.211,0.27c-0.085,0.085-0.339,0.227-0.761,0.422c-0.422,0.195-0.968,0.386-1.641,0.574
	c-0.671,0.188-1.449,0.355-2.332,0.504c-0.883,0.148-1.824,0.223-2.824,0.223c-1.734,0-3.255-0.243-4.559-0.727
	c-1.305-0.484-2.403-1.203-3.293-2.156c-0.891-0.954-1.563-2.148-2.016-3.586c-0.453-1.438-0.68-3.109-0.68-5.017
	c0-1.812,0.235-3.441,0.704-4.887c0.468-1.446,1.145-2.672,2.027-3.68c0.883-1.008,1.949-1.782,3.199-2.32
	c1.25-0.54,2.649-0.81,4.195-0.81c1.657,0,3.067,0.266,4.231,0.797c1.164,0.531,2.121,1.246,2.871,2.145s1.301,1.954,1.652,3.164
	c0.352,1.211,0.528,2.505,0.528,3.88V47.24z M54.567,46.091c0.046-2.031-0.406-3.625-1.356-4.782
	c-0.951-1.155-2.362-1.734-4.233-1.734c-0.958,0-1.8,0.181-2.523,0.54c-0.724,0.359-1.329,0.835-1.815,1.429
	c-0.488,0.595-0.865,1.286-1.133,2.076c-0.268,0.789-0.417,1.613-0.448,2.472H54.567z"/>
<path fill="#004D1C" d="M79.506,55.491c0,0.266-0.008,0.496-0.023,0.692c-0.016,0.195-0.043,0.358-0.082,0.491
	c-0.04,0.134-0.085,0.25-0.141,0.352c-0.054,0.102-0.18,0.25-0.375,0.446c-0.196,0.195-0.527,0.438-0.997,0.727
	c-0.468,0.289-0.996,0.547-1.582,0.774c-0.586,0.227-1.223,0.41-1.91,0.55c-0.688,0.141-1.399,0.211-2.134,0.211
	c-1.515,0-2.859-0.25-4.031-0.75c-1.172-0.5-2.154-1.231-2.942-2.192s-1.39-2.141-1.804-3.539c-0.415-1.397-0.621-3.012-0.621-4.84
	c0-2.078,0.253-3.863,0.761-5.355c0.507-1.493,1.203-2.715,2.086-3.668c0.882-0.953,1.922-1.66,3.117-2.122
	c1.196-0.46,2.489-0.692,3.879-0.692c0.672,0,1.325,0.064,1.957,0.189c0.633,0.125,1.215,0.289,1.746,0.492
	c0.531,0.203,1.004,0.438,1.419,0.703c0.413,0.266,0.714,0.492,0.902,0.679c0.188,0.188,0.316,0.337,0.386,0.446
	c0.071,0.109,0.129,0.239,0.176,0.387c0.046,0.149,0.078,0.316,0.094,0.504c0.016,0.188,0.023,0.422,0.023,0.704
	c0,0.609-0.071,1.035-0.211,1.277c-0.141,0.242-0.313,0.363-0.516,0.363c-0.234,0-0.503-0.129-0.809-0.386
	c-0.304-0.258-0.691-0.543-1.16-0.855s-1.035-0.598-1.699-0.856c-0.665-0.257-1.45-0.386-2.356-0.386
	c-1.86,0-3.285,0.715-4.277,2.144c-0.993,1.431-1.489,3.505-1.489,6.224c0,1.36,0.129,2.551,0.387,3.574
	c0.258,1.024,0.637,1.879,1.137,2.566c0.5,0.688,1.114,1.199,1.84,1.536c0.726,0.336,1.558,0.503,2.496,0.503
	c0.891,0,1.672-0.141,2.343-0.422c0.673-0.281,1.255-0.589,1.747-0.926c0.492-0.334,0.906-0.639,1.242-0.913
	c0.336-0.273,0.598-0.411,0.786-0.411c0.109,0,0.203,0.032,0.282,0.094c0.078,0.063,0.144,0.169,0.199,0.317
	c0.055,0.148,0.094,0.336,0.118,0.563C79.494,54.908,79.506,55.178,79.506,55.491z"/>
<path fill="#004D1C" d="M88.952,30.48c0,0.907-0.173,1.524-0.517,1.852c-0.343,0.328-0.976,0.492-1.898,0.492
	c-0.906,0-1.527-0.161-1.862-0.48c-0.337-0.32-0.504-0.926-0.504-1.816c0-0.906,0.172-1.524,0.516-1.852
	c0.343-0.328,0.975-0.493,1.898-0.493c0.906,0,1.527,0.161,1.863,0.48C88.784,28.984,88.952,29.59,88.952,30.48z M88.507,58.702
	c0,0.125-0.032,0.23-0.094,0.316c-0.063,0.086-0.165,0.161-0.305,0.222c-0.141,0.063-0.336,0.11-0.586,0.141
	c-0.25,0.031-0.571,0.047-0.96,0.047c-0.375,0-0.688-0.016-0.938-0.047c-0.25-0.031-0.449-0.079-0.598-0.141
	c-0.148-0.062-0.25-0.136-0.304-0.222c-0.055-0.086-0.082-0.191-0.082-0.316V37.606c0-0.109,0.027-0.211,0.082-0.306
	c0.054-0.093,0.156-0.171,0.304-0.234c0.149-0.062,0.348-0.109,0.598-0.14c0.25-0.031,0.563-0.047,0.938-0.047
	c0.39,0,0.71,0.016,0.96,0.047c0.25,0.031,0.446,0.078,0.586,0.14c0.14,0.063,0.242,0.141,0.305,0.234
	c0.062,0.095,0.094,0.197,0.094,0.306V58.702z"/>
<path fill="#004D1C" d="M108.899,52.959c0,1.078-0.199,2.039-0.598,2.882c-0.398,0.845-0.965,1.555-1.699,2.134
	c-0.735,0.578-1.61,1.016-2.625,1.312c-1.016,0.297-2.133,0.446-3.352,0.446c-0.75,0-1.465-0.06-2.144-0.176
	c-0.681-0.117-1.29-0.265-1.829-0.446c-0.539-0.179-0.996-0.366-1.372-0.563c-0.375-0.195-0.649-0.371-0.82-0.527
	c-0.172-0.155-0.297-0.374-0.375-0.656c-0.078-0.282-0.117-0.664-0.117-1.148c0-0.297,0.016-0.547,0.047-0.75
	c0.031-0.202,0.07-0.367,0.118-0.492c0.047-0.125,0.112-0.215,0.199-0.27c0.085-0.055,0.184-0.083,0.293-0.083
	c0.171,0,0.425,0.106,0.761,0.316c0.335,0.211,0.75,0.441,1.242,0.691c0.493,0.25,1.075,0.481,1.747,0.692s1.445,0.316,2.32,0.316
	c0.656,0,1.25-0.07,1.781-0.211c0.531-0.14,0.992-0.347,1.383-0.621c0.391-0.273,0.692-0.621,0.903-1.043
	c0.211-0.422,0.316-0.922,0.316-1.5c0-0.594-0.152-1.094-0.457-1.501c-0.305-0.406-0.708-0.766-1.208-1.077
	c-0.5-0.313-1.063-0.59-1.688-0.833s-1.27-0.496-1.934-0.761c-0.665-0.266-1.312-0.566-1.946-0.903
	c-0.633-0.336-1.2-0.746-1.699-1.231c-0.501-0.484-0.903-1.062-1.208-1.734s-0.457-1.477-0.457-2.414c0-0.829,0.16-1.622,0.48-2.379
	c0.32-0.758,0.801-1.422,1.442-1.992c0.641-0.571,1.441-1.027,2.402-1.372c0.961-0.343,2.082-0.516,3.364-0.516
	c0.563,0,1.125,0.048,1.688,0.141c0.563,0.094,1.07,0.211,1.523,0.352c0.453,0.141,0.84,0.292,1.161,0.457
	c0.32,0.164,0.563,0.308,0.727,0.434c0.164,0.125,0.273,0.234,0.327,0.328c0.055,0.095,0.094,0.199,0.118,0.317
	c0.023,0.117,0.047,0.261,0.071,0.434c0.023,0.171,0.035,0.383,0.035,0.633c0,0.265-0.012,0.496-0.035,0.691
	c-0.024,0.195-0.063,0.355-0.117,0.479c-0.056,0.125-0.122,0.216-0.2,0.27c-0.079,0.055-0.164,0.082-0.258,0.082
	c-0.141,0-0.344-0.085-0.609-0.258c-0.266-0.171-0.61-0.356-1.031-0.551s-0.918-0.378-1.489-0.551
	c-0.57-0.172-1.223-0.258-1.957-0.258c-0.656,0-1.235,0.074-1.734,0.223c-0.501,0.148-0.911,0.36-1.231,0.633
	c-0.32,0.273-0.563,0.598-0.726,0.972c-0.164,0.375-0.247,0.782-0.247,1.219c0,0.609,0.156,1.122,0.469,1.536
	c0.312,0.414,0.719,0.777,1.219,1.089c0.5,0.313,1.07,0.594,1.711,0.844c0.641,0.249,1.293,0.508,1.958,0.774
	c0.664,0.265,1.32,0.562,1.969,0.89s1.222,0.727,1.723,1.195c0.5,0.468,0.902,1.031,1.207,1.688
	C108.747,51.272,108.899,52.054,108.899,52.959z"/>
<path fill="#004D1C" d="M118.743,30.48c0,0.907-0.172,1.524-0.516,1.852c-0.343,0.328-0.977,0.492-1.898,0.492
	c-0.907,0-1.527-0.161-1.863-0.48c-0.337-0.32-0.504-0.926-0.504-1.816c0-0.906,0.171-1.524,0.516-1.852
	c0.343-0.328,0.976-0.493,1.898-0.493c0.907,0,1.527,0.161,1.864,0.48C118.576,28.984,118.743,29.59,118.743,30.48z M118.298,58.702
	c0,0.125-0.032,0.23-0.093,0.316c-0.063,0.086-0.165,0.161-0.305,0.222c-0.141,0.063-0.336,0.11-0.585,0.141
	c-0.251,0.031-0.572,0.047-0.962,0.047c-0.375,0-0.688-0.016-0.938-0.047c-0.25-0.031-0.449-0.079-0.598-0.141
	c-0.148-0.062-0.25-0.136-0.305-0.222c-0.055-0.086-0.082-0.191-0.082-0.316V37.606c0-0.109,0.027-0.211,0.082-0.306
	c0.055-0.093,0.157-0.171,0.305-0.234c0.148-0.062,0.347-0.109,0.598-0.14c0.25-0.031,0.563-0.047,0.938-0.047
	c0.39,0,0.711,0.016,0.962,0.047c0.249,0.031,0.445,0.078,0.585,0.14c0.141,0.063,0.242,0.141,0.305,0.234
	c0.061,0.095,0.093,0.197,0.093,0.306V58.702z"/>
<path fill="#004D1C" d="M145.066,47.92c0,1.719-0.227,3.301-0.68,4.747c-0.454,1.445-1.129,2.691-2.027,3.738
	c-0.898,1.048-2.024,1.864-3.375,2.45c-1.352,0.586-2.918,0.879-4.7,0.879c-1.735,0-3.246-0.258-4.535-0.774
	c-1.29-0.516-2.364-1.265-3.223-2.25c-0.86-0.984-1.5-2.18-1.922-3.586c-0.422-1.406-0.632-3-0.632-4.781
	c0-1.72,0.222-3.301,0.667-4.747c0.445-1.445,1.118-2.69,2.017-3.739c0.898-1.046,2.019-1.858,3.363-2.437
	c1.343-0.578,2.914-0.868,4.71-0.868c1.735,0,3.247,0.258,4.536,0.774c1.289,0.516,2.363,1.265,3.223,2.25
	c0.859,0.984,1.504,2.18,1.935,3.586C144.851,44.568,145.066,46.154,145.066,47.92z M141.058,48.177c0-1.14-0.107-2.219-0.32-3.234
	c-0.213-1.016-0.563-1.907-1.052-2.673c-0.49-0.765-1.151-1.371-1.987-1.817c-0.836-0.444-1.875-0.668-3.122-0.668
	c-1.152,0-2.141,0.204-2.969,0.61c-0.827,0.407-1.509,0.981-2.045,1.723c-0.536,0.742-0.934,1.622-1.194,2.637
	c-0.26,1.017-0.39,2.125-0.39,3.329c0,1.156,0.105,2.243,0.319,3.258c0.213,1.016,0.568,1.903,1.064,2.66
	c0.496,0.759,1.163,1.36,1.998,1.806c0.836,0.445,1.877,0.668,3.123,0.668c1.135,0,2.121-0.204,2.956-0.61
	c0.836-0.406,1.522-0.977,2.058-1.711c0.537-0.734,0.931-1.608,1.183-2.625C140.932,50.514,141.058,49.396,141.058,48.177z"/>
<path fill="#004D1C" d="M168.927,58.702c0,0.125-0.032,0.23-0.094,0.316c-0.063,0.086-0.165,0.161-0.305,0.222
	c-0.141,0.063-0.336,0.11-0.586,0.141s-0.563,0.047-0.938,0.047c-0.391,0-0.711-0.016-0.961-0.047
	c-0.25-0.031-0.445-0.079-0.586-0.141c-0.14-0.062-0.242-0.136-0.305-0.222c-0.062-0.086-0.093-0.191-0.093-0.316V46.349
	c0-1.202-0.094-2.171-0.281-2.906c-0.188-0.734-0.461-1.367-0.821-1.899c-0.36-0.53-0.824-0.937-1.395-1.218
	c-0.571-0.281-1.23-0.421-1.98-0.421c-0.969,0-1.938,0.344-2.906,1.031c-0.97,0.688-1.985,1.696-3.047,3.023v14.744
	c0,0.125-0.032,0.23-0.093,0.316c-0.063,0.086-0.164,0.161-0.305,0.222c-0.141,0.063-0.337,0.11-0.586,0.141
	c-0.251,0.031-0.571,0.047-0.962,0.047c-0.375,0-0.688-0.016-0.937-0.047c-0.25-0.031-0.45-0.079-0.598-0.141
	c-0.148-0.062-0.25-0.136-0.304-0.222c-0.056-0.086-0.082-0.191-0.082-0.316V37.606c0-0.125,0.022-0.23,0.07-0.316
	c0.047-0.085,0.141-0.164,0.281-0.234c0.141-0.07,0.32-0.118,0.539-0.141c0.219-0.023,0.508-0.035,0.868-0.035
	c0.343,0,0.629,0.012,0.855,0.035c0.226,0.023,0.402,0.07,0.527,0.141c0.125,0.071,0.215,0.149,0.27,0.234
	c0.055,0.086,0.083,0.192,0.083,0.316v2.789c1.187-1.329,2.371-2.3,3.551-2.917c1.179-0.618,2.371-0.927,3.574-0.927
	c1.407,0,2.59,0.239,3.551,0.715c0.961,0.477,1.738,1.114,2.332,1.911c0.594,0.797,1.02,1.731,1.278,2.8
	c0.258,1.071,0.387,2.356,0.387,3.856V58.702z"/>
<path fill="#004D1C" d="M213.55,27.343h21.48l22.662,52.705h-18.823l-3.173-8.562h-23.031l-3.174,8.562h-18.823L213.55,27.343z
	 M224.253,40.629h-0.148l-7.308,19.93h14.764L224.253,40.629z"/>
<path fill="#004D1C" d="M296.078,50.152h28.345v29.895h-8.193l-2.141-5.462c-2.288,2.583-9.078,7.086-22.734,7.086
	c-23.03,0-33.144-9.819-33.144-27.976c0-15.502,10.261-27.977,33.069-27.977c14.542,0,30.93,3.765,33.144,18.971h-19.856
	c-1.107-4.06-4.281-7.604-12.549-7.604c-10.777,0-15.648,7.383-15.648,16.683c0,9.154,4.871,16.536,15.648,16.536
	c8.637,0,13.14-3.249,14.837-9.227h-10.777V50.152z"/>
<path fill="#39B54A" d="M358.464,57.913c16.789-15.091,30.433-26.862,48.078-22.114c12.816,3.452,11.609,15.286,10.697,18.652
	c-0.914,3.369-7.24,13.791-17.955,10.885C388.569,62.432,380.872,47.177,358.464,57.913z"/>
<path fill="#006837" d="M331.626,76.682c16.788-15.093,30.436-26.861,48.079-22.113c12.815,3.45,11.607,15.285,10.694,18.651
	c-0.913,3.369-7.239,13.79-17.953,10.886C361.733,81.201,354.035,65.944,331.626,76.682z"/>
<path fill="#8CC63F" d="M360.825,56.17c18.723-12.616,33.458-22.991,33.141-41.259C393.737,1.64,381.963-0.065,378.474,0.002
	c-3.487,0.066-15.136,3.668-14.921,14.768C363.764,25.867,376.69,37.044,360.825,56.17z"/>
<path fill="#009245" d="M331.844,76.742c19.884-10.688,35.579-19.544,37.083-37.753c1.095-13.227-10.451-16.098-13.928-16.378
	c-3.476-0.281-15.426,2.143-16.321,13.206C337.786,46.884,349.532,59.291,331.844,76.742z"/>
<path fill="#004D1C" d="M60.32,70.016h-1.967v-1.01h1.967v-1.244c0-1.767,0.853-2.361,2.542-2.361c0.487,0,1.044,0.036,1.443,0.072
	v1.118c-0.399-0.036-0.8-0.073-1.201-0.073c-1.147,0-1.497,0.307-1.497,1.389v1.1h2.559v1.01h-2.559v8.365H60.32V70.016z"/>
<path fill="#004D1C" d="M69.542,68.717c3.481,0,5.134,2.362,5.134,4.977c0,2.613-1.653,4.975-5.134,4.975s-5.134-2.362-5.134-4.975
	C64.407,71.079,66.061,68.717,69.542,68.717z M69.542,77.552c2.436,0,3.847-1.605,3.847-3.858c0-2.255-1.411-3.859-3.847-3.859
	c-2.437,0-3.847,1.604-3.847,3.859C65.695,75.947,67.105,77.552,69.542,77.552z"/>
<path fill="#004D1C" d="M76.391,69.006h1.288v2.146h0.035c0.47-1.118,1.323-2.435,3.463-2.435c0.366,0,0.574,0.036,0.766,0.072
	v1.371c-0.4-0.072-0.783-0.108-1.184-0.108c-1.392,0-3.08,0.883-3.08,3.55v4.779h-1.288V69.006z"/>
<path fill="#004D1C" d="M96.195,74.468h-6.543l-1.688,3.913h-1.392l5.639-12.872h1.497l5.639,12.872h-1.497L96.195,74.468z
	 M92.941,66.842l-2.768,6.4h5.5L92.941,66.842z"/>
<path fill="#004D1C" d="M100.4,65.4h1.288v12.98H100.4V65.4z"/>
<path fill="#004D1C" d="M103.739,65.4h1.289v12.98h-1.289V65.4z"/>
<path fill="#004D1C" d="M111.971,65.509h9.312v1.226h-8.024v4.361h7.623v1.227h-7.623v6.058h-1.288V65.509z"/>
<path fill="#004D1C" d="M122.243,71.89c0.191-1.965,1.219-3.173,4.316-3.173c3.028,0,4.143,0.974,4.143,2.776v4.905
	c0,0.774,0.208,1.044,0.713,1.044c0.226,0,0.452-0.017,0.679-0.036v0.902c-0.261,0.053-0.661,0.144-1.079,0.144
	c-1.306,0-1.375-0.92-1.392-1.659h-0.035c-0.4,0.613-1.271,1.875-4.229,1.875c-1.549,0-3.516-0.702-3.516-2.812
	c0-2.543,2.523-2.831,4.507-2.94c2.82-0.161,3.167-0.325,3.167-1.243c0-1.352-0.87-1.84-2.993-1.84c-2.037,0-3.011,0.56-3.098,2.056
	H122.243z M129.518,73.332c-0.575,0.379-1.445,0.452-4.021,0.705c-1.497,0.144-2.367,0.613-2.367,1.73
	c0,1.461,1.219,1.893,2.611,1.893c1.74,0,3.776-0.973,3.776-2.902V73.332z"/>
<path fill="#004D1C" d="M133.152,69.006h1.287v2.146h0.035c0.47-1.118,1.322-2.435,3.463-2.435c0.366,0,0.574,0.036,0.766,0.072
	v1.371c-0.4-0.072-0.783-0.108-1.183-0.108c-1.393,0-3.081,0.883-3.081,3.55v4.779h-1.287V69.006z"/>
<path fill="#004D1C" d="M153.891,72.431c0-1.713-0.835-2.596-2.697-2.596c-1.984,0-3.081,1.19-3.081,3.011v5.536h-1.288v-6.347
	c0-1.189-0.818-2.2-2.576-2.2c-1.845,0-3.202,1.101-3.202,3.264v5.282h-1.289v-9.375h1.289v1.731h0.034
	c0.54-0.992,1.514-2.02,3.585-2.02c2.037,0,2.977,1.118,3.237,2.056c0.436-0.938,1.74-2.056,3.551-2.056
	c2.541,0,3.724,1.335,3.724,3.263v6.401h-1.288V72.431z"/>
<path fill="#004D1C" d="M166.709,75.389c-0.523,1.658-1.88,3.28-4.874,3.28c-3.707,0-4.925-2.687-4.925-4.975
	c0-2.615,1.548-4.977,4.925-4.977c2.333,0,5.1,1.046,5.1,5.3h-8.737c0,1.947,1.34,3.535,3.638,3.535
	c2.158,0,3.132-0.739,3.585-2.164H166.709z M165.647,73.009c-0.365-2.309-2.001-3.175-3.725-3.175c-1.653,0-3.428,0.883-3.725,3.175
	H165.647z"/>
<path fill="#004D1C" d="M168.568,69.006h1.288v2.146h0.035c0.47-1.118,1.323-2.435,3.463-2.435c0.366,0,0.575,0.036,0.766,0.072
	v1.371c-0.4-0.072-0.784-0.108-1.183-0.108c-1.393,0-3.081,0.883-3.081,3.55v4.779h-1.288V69.006z"/>
<path fill="#004D1C" d="M181.965,71.783c-0.332-1.516-1.236-1.949-3.116-1.949c-1.357,0-2.61,0.307-2.61,1.604
	c0,0.975,0.609,1.173,3.359,1.551c2.767,0.379,3.915,0.884,3.915,2.705c0,1.858-1.462,2.975-4.298,2.975
	c-2.872,0-4.577-0.973-4.577-3.228h1.184c0.226,1.57,1.078,2.111,3.394,2.111c1.792,0,3.011-0.379,3.011-1.786
	c0-0.938-0.644-1.353-3.463-1.641c-2.819-0.289-3.812-0.973-3.812-2.633c0-1.622,1.271-2.776,3.898-2.776
	c2.941,0,4.143,1.1,4.299,3.066H181.965z"/>
</svg>
